<?xml version="1.0" encoding="utf-8"?>
<!DOCTYPE svg PUBLIC "-//W3C//DTD SVG 1.1//EN" "http://www.w3.org/Graphics/SVG/1.1/DTD/svg11.dtd">
<svg version="1.1" xmlns="http://www.w3.org/2000/svg" width="1088" height="256" viewBox="0 0 1088 256">
<g transform="scale(0.256,0.256)">
<g>
<rect fill="#ffffff" width="4250" height="1000" />
</g>
<g transform="translate(750,0)">
<g transform="scale(1,-1) translate(0,-893)">
<path stroke="none" fill="#000000" d="M505 736Q511 722 470 588Q427 449 402 450Q385 459 371 504Q357 547 345 554Q330 550 286 513Q246 479 226 481Q217 515 219 511Q224 525 224 553Q225 581 229 595Q244 597 260 611Q282 630 287 633L322 669Q344 691 355 707L347 734Q343 749 351 760L364 761Q422 728 442 670Q441 665 441 657V646Q439 634 425 627Q400 614 396 608Q432 593 439 601Q481 647 494 735L505 736ZM919 -33T828 -33Q731 -33 715 -9Q708 -5 693 7L671 22Q660 44 621 81Q578 121 565 140Q518 212 474 217Q465 201 450 135Q439 83 411 59Q335 -4 307 -8Q302 -13 289 -14Q276 -14 271 -17Q265 -13 245 -14Q226 -15 221 -7Q199 -4 197 -3Q185 1 185 15Q191 23 207 24Q223 24 229 30Q265 36 316 68Q374 105 374 135Q384 144 393 179Q402 215 395 225Q364 208 343 192L320 186Q315 186 289 181Q269 177 260 183Q243 182 232 204Q211 218 213 242Q219 248 309 275Q409 305 421 310Q422 311 434 357Q426 372 414 379Q335 351 306 384L303 397Q312 396 380 418Q405 442 475 466Q491 482 491 487Q480 511 481 514Q577 529 578 530Q584 543 597 546Q618 567 618 582Q621 578 610 603Q604 618 585 600Q559 574 542 572L532 584Q520 668 537 695Q560 702 571 758Q573 769 560 781L528 787Q530 811 541 816Q546 821 561 823Q575 825 578 824L610 808Q629 799 652 774V767Q653 766 637 707Q644 706 657 713Q671 721 679 719Q710 726 745 711Q749 707 757 702L769 694Q782 683 775 668L737 649Q661 643 654 637Q654 639 684 578H691Q695 514 681 504Q676 500 654 493Q629 485 608 474L613 443Q608 429 583 422Q540 411 545 413Q537 414 525 410Q511 404 505 404L496 394Q511 390 508 371Q503 345 504 342Q514 349 544 357Q570 364 581 375Q592 375 611 379Q633 384 640 385Q671 387 683 349L690 337Q681 317 674 319Q654 309 597 306Q543 303 525 290Q496 269 496 272Q508 264 515 264Q521 256 537 248Q553 239 559 232Q590 217 635 175Q690 124 707 112Q750 81 833 48Q949 2 952 -18Q919 -33 828 -33Z" />
</g>
</g>
<g transform="translate(2500,0)">
<g transform="scale(1,-1) translate(0,-893)">
<path stroke="none" fill="#000000" d="M871 291T817 203Q769 124 811 103Q809 99 813 91Q817 81 817 78Q823 80 690 73Q681 73 572 54Q566 48 568 26Q569 8 558 7Q550 19 538 46Q526 72 517 84Q518 89 514 103Q511 114 515 121Q513 130 505 187Q499 233 491 246Q465 289 470 305Q475 295 492 290Q511 284 517 278Q527 282 541 295Q555 308 563 312Q566 314 583 319Q595 322 603 328Q579 344 504 338Q510 349 542 359Q573 368 590 407Q587 422 589 470Q591 509 580 531Q580 536 587 542Q594 548 593 554Q592 570 597 581Q596 601 597 646Q599 688 597 710Q597 709 565 745Q545 766 549 786Q557 783 586 777Q614 770 630 765Q681 746 680 709Q680 665 669 637Q670 628 667 607Q665 588 667 577L665 563Q669 569 680 576Q692 583 696 589Q714 594 716 598Q692 616 687 634Q740 607 760 613Q785 620 811 607Q811 601 817 593Q824 585 823 578Q820 543 752 527Q721 499 664 487Q660 479 657 462Q653 444 650 437Q656 415 620 335Q632 335 657 347Q681 358 696 357Q704 354 715 365Q725 375 732 368L737 374Q743 371 762 374Q778 376 785 367Q799 366 848 330Q851 328 853 317Q854 309 861 310Q871 291 817 203ZM542 646T545 634Q550 619 550 615Q555 593 538 580Q523 567 524 552Q492 505 439 437L422 430Q409 426 403 423Q382 412 382 394L407 402Q421 406 432 397Q455 379 458 374Q469 358 444 348Q432 344 416 333Q398 321 390 317Q388 314 378 304Q370 296 368 290Q371 287 380 290Q389 293 393 292Q399 297 421 288Q456 247 457 257Q466 253 456 241Q449 233 430 234Q413 235 409 224Q401 227 388 222Q374 217 367 218Q363 213 351 210Q340 208 336 202Q324 199 245 160Q225 158 191 143Q156 128 139 125Q111 109 123 98Q143 80 183 106Q238 143 242 144Q253 147 295 142Q328 138 343 152L379 169Q402 179 415 182H426Q432 181 434 188Q427 200 433 221Q431 198 456 168Q483 137 483 117Q391 132 400 140Q386 128 383 130Q376 126 355 107Q339 92 321 90Q307 89 277 106Q253 120 239 110Q225 100 201 73Q177 47 162 36Q140 32 125 42Q88 66 98 99Q96 91 169 155Q176 153 189 164Q189 165 178 188Q172 202 183 210Q213 215 221 228Q243 235 299 281Q290 285 253 280Q223 276 213 290Q213 289 202 305Q196 315 203 321Q210 318 220 322Q230 326 235 325Q241 331 269 342Q290 351 296 366Q297 368 297 374Q296 380 298 383Q282 376 227 394Q190 361 204 358Q206 370 192 387Q178 403 182 416L178 422L169 525Q164 534 157 566Q151 592 140 604Q187 579 194 569Q196 576 201 588Q206 601 207 607Q217 649 278 672Q344 697 349 706Q356 704 364 714Q415 736 447 716Q454 705 475 697Q498 689 505 680Q514 679 524 668Q534 655 541 653Q542 646 545 634ZM442 676Q426 685 403 670Q364 645 367 646L369 632Q370 624 378 622Q377 617 382 604Q385 593 382 588Q387 585 406 582Q422 578 428 572Q426 556 410 546Q405 543 394 538Q382 533 377 530Q375 524 375 492L367 479Q405 462 418 486Q421 492 426 510Q430 527 435 535Q437 550 451 592Q463 627 461 650L442 676ZM288 608T255 617Q227 625 214 611Q202 550 210 532Q215 530 227 535Q239 534 260 546Q280 557 292 557Q320 582 319 580Q323 588 300 613Q288 608 255 617ZM299 488T269 494Q263 495 243 501Q227 505 218 506Q227 470 229 424Q234 425 305 460Q318 485 317 505Q299 488 269 494ZM720 313T721 312L588 275Q563 272 565 270Q555 261 550 195Q559 185 560 164Q562 141 567 132Q576 126 577 132Q588 125 605 135Q623 144 633 138Q644 140 662 147Q682 155 690 157Q694 158 725 200L722 217Q726 224 735 264Q744 305 742 309Q720 313 721 312Z" />
</g>
</g>
</g>
</svg>